<?xml version="1.0" standalone="no"?><!DOCTYPE svg PUBLIC "-//W3C//DTD SVG 1.1//EN" "http://www.w3.org/Graphics/SVG/1.1/DTD/svg11.dtd"><svg t="1588571724765" class="icon" viewBox="0 0 1024 1024" version="1.1" xmlns="http://www.w3.org/2000/svg" p-id="1458" width="800" height="800" data-spm-anchor-id="a313x.7781069.0.i7" xmlns:xlink="http://www.w3.org/1999/xlink"><defs><style type="text/css"></style></defs><path d="M317.900233 55.632541A291.745714 291.745714 0 0 0 70.227051 502.499118a162.779369 162.779369 0 0 1 126.365343-56.066041 152.230861 152.230861 0 0 1 25.432019 2.239752 140.237353 140.237353 0 0 1 187.850137-164.513371 229.610668 229.610668 0 0 1 125.570592-130.628096A291.095463 291.095463 0 0 0 317.900233 55.632541z" fill="#E9EAEB" p-id="1459" data-spm-anchor-id="a313x.7781069.0.i6" class="selected"></path><path d="M830.875609 750.38905H641.36372v-31.573274H830.875609c80.486559 0 138.936852-62.640796 138.936851-148.979609 0-77.524307-51.658788-141.104353-125.642842-154.759613l-15.317011-2.817752 2.601002-15.389261a191.53489 191.53489 0 0 0 3.323502-34.174275 211.764905 211.764905 0 0 0-410.2358-72.972554L419.050307 304.895223l-15.028011-5.996754a124.559091 124.559091 0 0 0-170.510125 115.600085 125.281592 125.281592 0 0 0 3.901503 30.417272l5.852254 23.409017-23.842517-4.046003a135.90235 135.90235 0 0 0-22.758767-1.878501c-80.197559 0-140.670853 53.465039-140.670853 124.631341 0 72.683553 62.351796 131.784097 138.936852 131.784096h256.993438v31.573274H195.075143c-93.925069 0-170.510125-73.261554-170.510125-163.35737s73.911804-156.349115 172.099626-156.349115h6.141255a148.184859 148.184859 0 0 1-0.939251-16.328512 156.276864 156.276864 0 0 1 199.048896-149.846609 243.265928 243.265928 0 0 1 465.579341 98.260072 202.300148 202.300148 0 0 1-1.517251 24.709518c81.136809 21.675016 136.5526 94.719819 136.5526 182.431383 0 104.545827-71.744303 180.480632-170.654625 180.480633z" fill="#2A5082" p-id="1460"></path><path d="M278.162704 829.358357h-66.036549c-91.685317 0-147.245608-22.108516-198.254145-78.897057l23.481267-21.097016c44.867283 49.924787 92.191068 68.4208 174.772878 68.4208h66.036549zM865.338884 829.358357h-66.108799v-31.573273h66.108799c48.118535 0 99.777323-30.634022 117.550836-69.721301l28.900021 13.07726c-23.047767 50.286037-85.905313 88.217315-146.450857 88.217314z" fill="#BCC0C4" p-id="1461"></path><path d="M483.497354 387.188034h31.573273v126.293092h-31.573273zM609.790447 781.962323h-31.573274V552.062654l126.293093-76.946306V387.188034h31.645523v105.629577L609.790447 569.763917v212.198406z" fill="#2A5082" p-id="1462"></path><path d="M717.833334 347.219092m-23.265501 31.498971a39.159529 39.159529 0 1 0 46.531002-62.997942 39.159529 39.159529 0 1 0-46.531002 62.997942Z" fill="#A3D4FF" p-id="1463"></path><path d="M717.732026 402.216045a54.69329 54.69329 0 0 1-32.584774-10.765258 54.98229 54.98229 0 1 1 32.584774 10.765258z m-13.79976-36.125027a23.409017 23.409017 0 1 0-4.913004-32.729274 23.409017 23.409017 0 0 0 4.913004 32.729274z" fill="#2A5082" p-id="1464"></path><path d="M603.845575 440.222558m-23.265501 31.498971a39.159529 39.159529 0 1 0 46.531002-62.997942 39.159529 39.159529 0 1 0-46.531002 62.997942Z" fill="#A3D4FF" p-id="1465"></path><path d="M603.721442 495.201863a55.12679 55.12679 0 1 1 8.308756-0.650251 55.704791 55.704791 0 0 1-8.308756 0.650251z m0-78.319058a23.409017 23.409017 0 0 0-13.94426 42.194031 23.409017 23.409017 0 1 0 13.94426-42.194031z" fill="#2A5082" p-id="1466"></path><path d="M498.016842 549.355008m-23.265501 31.498971a39.159529 39.159529 0 1 0 46.531002-62.997942 39.159529 39.159529 0 1 0-46.531002 62.997942Z" fill="#A3D4FF" p-id="1467"></path><path d="M497.875115 604.299443a54.54879 54.54879 0 0 1-32.512524-10.765258 54.62104 54.62104 0 1 1 32.512524 10.765258z m0-78.391308A23.409017 23.409017 0 0 0 484.075355 568.102166a23.409017 23.409017 0 1 0 13.94426-42.194031z" fill="#2A5082" p-id="1468"></path><path d="M515.070627 845.108869h-31.573273V679.439498L357.132012 586.381429V481.907853h31.573273v88.506315l126.365342 93.058068v181.636633z" fill="#2A5082" p-id="1469"></path><path d="M366.840792 440.620303m-31.498971 23.265501a39.159529 39.159529 0 1 0 62.997942-46.531002 39.159529 39.159529 0 1 0-62.997942 46.531002Z" fill="#A3D4FF" p-id="1470"></path><path d="M366.885769 495.563113a54.91004 54.91004 0 1 1 32.584774-10.765258 54.69329 54.69329 0 0 1-32.584774 10.765258z m0-78.319057a23.481267 23.481267 0 1 0 3.540252 0 23.842517 23.842517 0 0 0-3.612502 0z" fill="#2A5082" p-id="1471"></path><path d="M497.883805 346.788577m-23.2655 31.498971a39.159529 39.159529 0 1 0 46.531001-62.997941 39.159529 39.159529 0 1 0-46.531001 62.997941Z" fill="#A3D4FF" p-id="1472"></path><path d="M497.802865 401.782544a54.91004 54.91004 0 1 1 44.072532-22.325266 54.62104 54.62104 0 0 1-44.072532 22.325266z m0-78.319057a23.770267 23.770267 0 0 0-3.540253 0A23.409017 23.409017 0 0 0 484.075355 365.657518a23.409017 23.409017 0 1 0 13.94426-42.194031zM817.220349 687.242503h-81.06456v-31.573273h81.06456c48.479786 0 92.624568-45.156283 92.624567-94.719819h31.573274c0 67.264799-58.016792 126.293092-124.197841 126.293092zM325.558738 687.242503H194.208142c-49.852537 0-105.485077-38.942779-105.485077-94.719819h31.573273c0 36.125026 39.015029 63.146546 73.911804 63.146546h131.350596zM578.217173 813.535596h31.573274v31.573273h-31.573274zM578.217173 876.682142h31.573274v31.573273h-31.573274zM483.497354 876.682142h31.573273v31.573273h-31.573273zM483.497354 939.900938h31.573273v31.573274h-31.573273z" fill="#2A5082" p-id="1473"></path></svg>